<svg width="108" height="108" viewBox="0 0 108 108" fill="none" xmlns="http://www.w3.org/2000/svg">
<circle cx="54" cy="54" r="54" fill="#00B9AE"/>
<path d="M77.8142 49.1287L83.2543 53.7863L82.1064 74.448L72.7952 86.8195L70.7544 69.729L58.2545 85.6716H48.5607L36.4434 69.729L35.423 86.8195L26.1119 74.448L24.3262 53.7863L29.6597 49.1287C24.4301 40.0732 28.8382 21.6965 33.43 21.3904C35.4283 21.3904 38.3567 29.5534 43.4587 37.0783H63.7392C68.8412 29.5534 72.5029 21.3904 74.5011 21.3904C79.093 21.6965 83.0437 40.0732 77.8142 49.1287Z" fill="white"/>
<path d="M83.2543 53.7863L63.7392 37.0783M83.2543 53.7863L82.1064 74.448L72.7952 86.8195L70.7544 69.729M83.2543 53.7863L70.7544 69.729M63.7392 37.0783H43.4587M63.7392 37.0783C68.8412 29.5534 72.5029 21.3904 74.5011 21.3904C79.093 21.6965 83.0437 40.0732 77.8142 49.1287M43.4587 37.0783L24.3262 53.7863M43.4587 37.0783C38.3567 29.5534 35.4283 21.3904 33.43 21.3904C28.8382 21.6965 24.4301 40.0732 29.6597 49.1287M24.3262 53.7863L36.4434 69.729M24.3262 53.7863L26.1119 74.448L35.423 86.8195L36.4434 69.729M70.7544 69.729L58.2545 85.6716H48.5607L36.4434 69.729M62.253 49.7046V58.8875M40.0592 47.919C41.76 45.3682 46.2328 41.797 50.5184 47.919M40.0592 60.418C41.76 62.9689 46.2328 66.54 50.5184 60.418M45.544 49.7046V58.8875" stroke="#00B9AE" stroke-width="3.5" stroke-linecap="round" stroke-linejoin="round"/>
</svg>
